<?xml version="1.0" encoding="UTF-8" standalone="no"?>
<!-- Created with Inkscape (http://www.inkscape.org/) -->

<svg
   xmlns:dc="http://purl.org/dc/elements/1.1/"
   xmlns:cc="http://creativecommons.org/ns#"
   xmlns:rdf="http://www.w3.org/1999/02/22-rdf-syntax-ns#"
   xmlns:svg="http://www.w3.org/2000/svg"
   xmlns="http://www.w3.org/2000/svg"
   xmlns:sodipodi="http://sodipodi.sourceforge.net/DTD/sodipodi-0.dtd"
   xmlns:inkscape="http://www.inkscape.org/namespaces/inkscape"
   id="svg2"
   version="1.1"
   inkscape:version="0.48.5 r10040"
   width="646"
   height="193"
   xml:space="preserve"
   sodipodi:docname="final_logo_design.ai.ps"><metadata
     id="metadata8"><rdf:RDF><cc:Work
         rdf:about=""><dc:format>image/svg+xml</dc:format><dc:type
           rdf:resource="http://purl.org/dc/dcmitype/StillImage" /><dc:title></dc:title></cc:Work></rdf:RDF></metadata><defs
     id="defs6"><clipPath
       clipPathUnits="userSpaceOnUse"
       id="clipPath18"><path
         d="m 0,6122.88 8588.98,0 L 8588.98,0 0,0 0,6122.88 z"
         id="path20"
         inkscape:connector-curvature="0" /></clipPath><clipPath
       clipPathUnits="userSpaceOnUse"
       id="clipPath88"><path
         d="m 0,0 8588.98,0 0,6122.88 L 0,6122.88 0,0 z"
         id="path90"
         inkscape:connector-curvature="0" /></clipPath></defs><sodipodi:namedview
     pagecolor="#ffffff"
     bordercolor="#666666"
     borderopacity="1"
     objecttolerance="10"
     gridtolerance="10"
     guidetolerance="10"
     inkscape:pageopacity="0"
     inkscape:pageshadow="2"
     inkscape:window-width="1920"
     inkscape:window-height="1030"
     id="namedview4"
     showgrid="false"
     inkscape:zoom="1.701868"
     inkscape:cx="155.82272"
     inkscape:cy="159.45378"
     inkscape:window-x="0"
     inkscape:window-y="0"
     inkscape:window-maximized="1"
     inkscape:current-layer="g16" /><g
     id="g10"
     inkscape:groupmode="layer"
     inkscape:label="ink_ext_XXXXXX"
     transform="matrix(1.25,0,0,-1.25,0,193.00001)"><g
       id="g12"
       transform="scale(0.1,0.1)"><g
         id="g14"><g
           id="g16"
           clip-path="url(#clipPath18)"><path
             d="m 1344.0115,1112.7501 c 0,-23.91 -6.31,-41.18 -18.93,-51.82 -12.62,-10.62 -30.89,-15.94 -54.81,-15.94 -19.93,0 -35.21,5.98 -45.83,17.94 -10.63,11.95 -15.95,28.56 -15.95,49.82 0,23.91 6.54,41.07 19.6,51.49 13.06,10.39 31.55,15.6 55.46,15.6 19.94,0 34.99,-5.87 45.19,-17.6 10.18,-11.74 15.27,-28.23 15.27,-49.49 m -203.94,-243.79998 c 23.91,6.64 46.05,12.28 66.43,16.93 20.37,4.66 38.41,8.53 54.14,11.63 15.71,3.09 28.57,5.31 38.53,6.65 9.96,1.32 16.49,1.99 19.59,1.99 14.17,0 21.26,-7.98 21.26,-23.91 l 0,-455.73 c 0,-10.62 -5.31,-16.83 -15.93,-18.6 -7.55,-1.32 -15.62,-2.54 -24.26,-3.65 -8.63,-1.11 -16.94,-1.99 -24.91,-2.66 -7.97,-0.67 -15.28,-1.1 -21.91,-1.33 -6.65,-0.22 -11.75,-0.33 -15.29,-0.33 -10.62,0 -15.95,5.54 -15.95,16.61 l 0,362.05 c 0,23.47 -3.76,39.53 -11.28,48.16 -7.55,8.64 -19.28,12.96 -35.21,12.96 -4.88,0 -9.63,-0.11 -14.28,-0.33 -4.65,-0.24 -10.31,-1 -16.94,-2.33"
             style="fill:#292929;fill-opacity:1;fill-rule:nonzero;stroke:none"
             id="path22"
             inkscape:connector-curvature="0" /><path
             d="m 1925.2915,997.8201 c -4.44,24.35 -11.63,45.28 -21.59,62.78 -9.97,17.5 -22.26,32 -36.88,43.52 -14.61,11.5 -31.11,20.02 -49.49,25.57 -18.37,5.54 -38.2,8.31 -59.45,8.31 -20.82,0 -40.75,-2.56 -59.79,-7.65 -19.05,-5.09 -35.87,-13.19 -50.48,-24.23 -14.62,-11.09 -26.24,-25.25 -34.88,-42.52 -8.64,-17.28 -12.95,-37.87 -12.95,-61.78 0,-21.27 5.08,-39.53998 15.27,-54.81998 10.18,-15.27 23.8,-28.56 40.85,-39.86 17.05,-11.29 36.65,-21.36 58.8,-30.23 22.13,-8.86 45.17,-17.72 69.08,-26.56 26.58,-10.21 53.16,-21.16 79.73,-32.89 26.57,-11.73 50.37,-26.02 71.41,-42.84 21.03,-16.84 38.08,-37.21 51.15,-61.12 13.06,-23.91 19.6,-53.38 19.6,-88.36 0,-30.55 -4.32,-57.57 -12.96,-81.04 -8.63,-23.48 -20.59,-43.96 -35.87,-61.46 -15.28,-17.5 -33.11,-32.2 -53.47,-44.16 -20.38,-11.97 -42.3,-21.59 -65.77,-28.91 -23.48,-7.31 -47.95,-12.5 -73.41,-15.61 -25.47,-3.09 -50.6,-4.64 -75.4,-4.64 -29.67,0 -59.24,1.77 -88.68,5.3 -29.47,3.55 -58.8,8.64 -88.02,15.29 -3.99,0.87 -7.22,2.75 -9.64,5.64 -2.44,2.88 -3.88,5.88 -4.31,8.98 -0.9,9.29 -1.78,22.91 -2.67,40.84 -0.89,17.95 -1.65,36.2 -2.33,54.8 -0.66,18.61 -1.22,35.43 -1.65,50.5 -0.44,15.06 -0.66,23.92 -0.66,26.58 l 33.21,3.32 c 3.09,-26.57 10.07,-49.61 20.92,-69.09 10.85,-19.5 24.59,-35.54 41.2,-48.16 16.6,-12.63 35.64,-21.93 57.13,-27.91 21.47,-5.98 44.61,-8.97 69.41,-8.97 22.15,0 43.63,2.54 64.44,7.63 20.81,5.09 39.3,13.3 55.48,24.59 16.16,11.28 29.11,25.8 38.85,43.51 9.74,17.72 14.62,39.2 14.62,64.43 0,20.83 -5.1,38.54 -15.28,53.16 -10.19,14.61 -23.81,27.56 -40.85,38.86 -17.05,11.29 -36.54,21.36 -58.46,30.23 -21.92,8.86 -44.63,17.93 -68.1,27.22 -26.57,10.64 -53.14,22.05 -79.71,34.23 -26.58,12.18 -50.39,26.89 -71.42,44.18 -21.03,17.27 -38.1,38.19 -51.15,62.77 -13.07,24.57 -19.59,54.8 -19.59,90.68 0,43.40998 8.51,79.70998 25.57,108.93998 17.05,29.25 39.41,52.72 67.1,70.43 27.66,17.7 59.12,30.32 94.33,37.86 35.2,7.53 71.19,11.3 107.95,11.3 24.35,0 50.93,-1.89 79.72,-5.66 28.78,-3.75 55.8,-8.75 81.04,-14.95 3.99,-0.87 7.2,-2.76 9.64,-5.64 2.42,-2.87 3.87,-5.87 4.32,-8.96 0.87,-9.31 1.76,-22.25 2.65,-38.86 0.88,-16.61 1.77,-33.45 2.66,-50.5 0.89,-17.04 1.55,-32.43 1.99,-46.16 0.44,-13.73 0.66,-21.93 0.66,-24.59"
             style="fill:#292929;fill-opacity:1;fill-rule:nonzero;stroke:none"
             id="path24"
             inkscape:connector-curvature="0" /><path
             d="m 2117.2715,1169.2201 c 23.91,4.42 46.61,8.18 68.09,11.29 21.48,3.09 40.52,5.53 57.13,7.31 16.61,1.77 30.45,3.09 41.52,3.99 11.06,0.88 18.15,1.32 21.25,1.32 14.17,0 21.26,-7.09 21.26,-21.26 l 0,-745.35998 c 0,-10.62 -5.31,-16.83 -15.93,-18.6 -7.55,-1.32 -15.85,-2.54 -24.92,-3.65 -9.08,-1.11 -17.93,-1.99 -26.57,-2.66 -8.64,-0.66 -16.61,-1.1 -23.92,-1.33 -7.3,-0.22 -12.74,-0.33 -16.27,-0.33 -10.64,0 -15.95,5.54 -15.95,16.61 l 0,657.66998 c 0,12.39 -1.22,22.47 -3.65,30.23 -2.44,7.74 -5.98,13.83 -10.63,18.26 -4.65,4.43 -10.19,7.54 -16.61,9.3 -6.42,1.77 -13.62,2.66 -21.59,2.66 -9.74,0 -19.49,-0.66 -29.22,-1.98"
             style="fill:#292929;fill-opacity:1;fill-rule:nonzero;stroke:none"
             id="path26"
             inkscape:connector-curvature="0" /><path
             d="m 3215.3815,432.49012 c 0,-4.87 -2.43,-8.42 -7.31,-10.62 -37.64,-11.52 -76.16,-19.82 -115.57,-24.92 -39.45,-5.08 -79.29,-7.63 -119.58,-7.63 -66,0 -126.46,8.97 -181.37,26.9 -54.91,17.94 -102.07,44.06 -141.5,78.39 -39.42,34.32 -70.08,76.62 -92.01,126.88 -21.92,50.26 -32.88,107.72 -32.88,172.4 0,66.43 11.63,124.88 34.88,175.37 23.25,50.48998 55.37,92.67998 96.34,126.54998 40.93,33.88 89.34,59.46 145.13,76.74 55.8,17.27 116.49,25.91 182.03,25.91 37.64,0 73.09,-2.23 106.29,-6.65 33.22,-4.43 65.78,-10.2 97.65,-17.28 4.88,-0.89 8.3,-2.77 10.31,-5.64 1.98,-2.89 3.21,-5.87 3.65,-8.97 0.44,-6.2 1.01,-14.18 1.65,-23.92 0.68,-9.74 1.22,-20.25 1.67,-31.55 0.44,-11.29 1,-22.82 1.66,-34.55 0.67,-11.74 1.21,-22.58 1.65,-32.55 0.44,-9.96 0.78,-18.49 1,-25.57 0.22,-7.09 0.32,-11.52 0.32,-13.29 l -33.2,-3.32 c -3.55,27.9 -12.29,51.37 -26.25,70.41 -13.94,19.04 -31.11,34.44 -51.47,46.18 -20.39,11.73 -42.97,20.14 -67.75,25.25 -24.82,5.08 -49.61,7.63 -74.41,7.63 -48.73,0 -91.57,-7.63 -128.55,-22.92 -36.97,-15.27 -67.86,-36.86 -92.67,-64.77 -24.8,-27.9 -43.4,-61.34 -55.81,-100.30998 -12.4,-38.98 -18.6,-82.15 -18.6,-129.54 0,-55.81 7.75,-106.85 23.26,-153.13 15.5,-46.29 38.64,-86.02 69.41,-119.24 30.77,-33.21 69.09,-59.02 114.92,-77.39 45.84,-18.39 99.1,-27.58 159.78,-27.58 10.18,0 20.71,0.22 31.55,0.68 10.85,0.43 22.04,1.32 33.54,2.65 l 0,208.6 c 0,12.83 -0.88,23.25 -2.65,31.22 -1.76,7.96 -4.76,14.05 -8.96,18.27 -4.21,4.19 -9.64,7.08 -16.26,8.63 -6.67,1.55 -14.87,2.32 -24.59,2.32 -3.11,0 -6.3,-0.11 -9.64,-0.33 -3.33,-0.23 -6.75,-0.33 -10.28,-0.33 l -3.34,37.21 c 23.9,1.76 45.96,3.2 66.1,4.32 20.15,1.09 37.86,1.98 53.15,2.65 15.28,0.66 27.9,1.1 37.86,1.32 9.96,0.22 16.51,0.34 19.6,0.34 14.18,0 21.25,-7.09 21.25,-21.26"
             style="fill:#292929;fill-opacity:1;fill-rule:nonzero;stroke:none"
             id="path28"
             inkscape:connector-curvature="0" /><path
             d="m 3516.3315,1204.4301 c 4.86,0 8.64,-1.45 11.29,-4.32 2.65,-2.88 5.74,-6.54 9.3,-10.96 l 459.04,-609.17998 -16.59,595.88998 c 0,5.32 3.53,8.19 10.6,8.64 7.99,1.33 18.6,2.66 31.9,3.98 13.29,1.34 26.13,2 38.52,2 7.09,0 10.64,-3.32 10.64,-9.97 l -15.94,-647.70998 0,-121.56 c 0,-5.32 -3.56,-8.19 -10.65,-8.64 -7.95,-0.88 -16.91,-1.54 -26.89,-1.99 -9.97,-0.44 -20.05,-0.67 -30.23,-0.67 -3.98,0 -7.09,0.79 -9.3,2.33 -2.23,1.56 -4.44,4.1 -6.65,7.63 l -462.35,613.83998 16.59,-611.16998 c 0,-5.32 -3.54,-8.2 -10.61,-8.64 -7.99,-1.33 -18.94,-2.43 -32.89,-3.32 -13.94,-0.89 -26.48,-1.33 -37.52,-1.33 -7.11,0 -10.65,3.32 -10.65,9.96 l 16.61,692.21998 -54.47,74.4 c -1.79,1.77 -2.67,4.21 -2.67,7.31 0,5.75 4,9.74 11.97,11.96 7.07,1.33 16.15,2.54 27.24,3.66 11.06,1.09 22.25,2.09 33.54,2.98 11.31,0.88 21.61,1.55 30.89,2 9.32,0.43 15.73,0.66 19.28,0.66"
             style="fill:#292929;fill-opacity:1;fill-rule:nonzero;stroke:none"
             id="path30"
             inkscape:connector-curvature="0" /><path
             d="m 4218.5015,1169.2201 c 23.92,4.42 46.62,8.18 68.09,11.29 21.49,3.09 40.53,5.53 57.14,7.31 16.61,1.77 30.45,3.09 41.51,3.99 11.07,0.88 18.16,1.32 21.25,1.32 14.18,0 21.27,-7.09 21.27,-21.26 l 0,-745.35998 c 0,-10.62 -5.32,-16.83 -15.92,-18.6 -7.56,-1.32 -15.87,-2.54 -24.93,-3.65 -9.08,-1.11 -17.93,-1.99 -26.57,-2.66 -8.64,-0.66 -16.61,-1.1 -23.92,-1.33 -7.29,-0.22 -12.74,-0.33 -16.27,-0.33 -10.63,0 -15.95,5.54 -15.95,16.61 l 0,657.66998 c 0,12.39 -1.22,22.47 -3.65,30.23 -2.43,7.74 -5.97,13.83 -10.63,18.26 -4.66,4.43 -10.2,7.54 -16.61,9.3 -6.43,1.77 -13.62,2.66 -21.59,2.66 -9.74,0 -19.48,-0.66 -29.22,-1.98"
             style="fill:#292929;fill-opacity:1;fill-rule:nonzero;stroke:none"
             id="path32"
             inkscape:connector-curvature="0" /><path
             d="m 4803.7715,426.51012 c 0,-10.62 -5.32,-16.83 -15.95,-18.6 -7.55,-1.32 -15.84,-2.54 -24.9,-3.65 -9.08,-1.11 -17.96,-1.99 -26.6,-2.67 -8.63,-0.66 -16.59,-1.09 -23.9,-1.32 -7.31,-0.22 -12.73,-0.33 -16.26,-0.33 -10.65,0 -15.95,5.54 -15.95,16.61 l 0,647.03998 c 0,22.59 -5.1,37.53 -15.29,44.84 -10.18,7.31 -22.81,10.97 -37.86,10.97 -9.32,0 -18.84,-0.68 -28.56,-2 l -3.99,36.53 c 9.3,1.77 22.79,3.99 40.51,6.65 17.71,2.66 36.21,5.31 55.47,7.97 19.28,2.66 37.88,4.87 55.8,6.64 17.95,1.77 32.01,2.66 42.2,2.66 l 236.49,0 c 15.05,0 30.77,0.1 47.16,0.33 16.39,0.23 34.55,0.56 54.47,1 7.09,0 11.07,-3.33 11.97,-9.96 0.89,-5.77 1.65,-13.74 2.33,-23.92 0.65,-10.2 1.33,-21.25 1.97,-33.21 0.68,-11.97 1.23,-24.26 1.69,-36.87 0.42,-12.62 0.76,-24.25 0.98,-34.88 0.22,-10.63 0.43,-19.71 0.67,-27.24 0.22,-7.53 0.32,-12.18 0.32,-13.95 l -33.2,-3.33 c -7.53,31.45 -15.19,55.81 -22.92,73.08 -7.75,17.28 -17.61,29.9 -29.56,37.87 -11.97,7.98 -27.14,12.73 -45.52,14.28 -18.37,1.55 -42.17,2.32 -71.42,2.32 l -111.59,0 c -7.55,0 -13.17,-0.22 -16.95,-0.66 -3.76,-0.44 -6.53,-1.56 -8.3,-3.31 -1.78,-1.78 -2.77,-4.32 -2.99,-7.65 -0.22,-3.32 -0.32,-7.87 -0.32,-13.61 l 0,-296.95998 c 36.31,1.77 69.29,3.43 98.98,4.98 29.66,1.55 55.23,2.89 76.72,3.99 21.49,1.1 38.77,2 51.82,2.66 13.06,0.66 21.13,1 24.24,1 12.4,0 18.62,-6.64 18.62,-19.93 0,-8.42 -0.46,-17.06 -1.34,-25.91 -0.89,-8.87 -1.99,-18.39 -3.32,-28.57 l -265.72,9.3"
             style="fill:#292929;fill-opacity:1;fill-rule:nonzero;stroke:none"
             id="path34"
             inkscape:connector-curvature="0" /><path
             d="m 1341.5915,121.60012 c 0,17.9 -12.94,29.9 -31.54,29.9 l -41.2,0 0,-60.020002 41.2,0 c 18.6,0 31.54,12.470002 31.54,30.120002 m -1.42,-109.670006 -39.77,62.360004 -31.55,0 0,-62.360004 -19.53,0 0,156.980006 63.08,0 c 28.72,0 49.43,-18.36 49.43,-47.31 0,-28.250002 -19.54,-43.780002 -40.96,-45.660002 l 42.37,-64.010004"
             style="fill:#292929;fill-opacity:1;fill-rule:nonzero;stroke:none"
             id="path36"
             inkscape:connector-curvature="0" /><path
             d="m 1484.2215,183.26012 -13.42,0 34.83,33.9 18.36,0 -39.77,-33.9 z m -49.2,-171.330006 0,156.980006 102.86,0 0,-17.41 -83.33,0 0,-50.61 81.68,0 0,-17.410002 -81.68,0 0,-54.140004 83.33,0 0,-17.41"
             style="fill:#292929;fill-opacity:1;fill-rule:nonzero;stroke:none"
             id="path38"
             inkscape:connector-curvature="0" /><path
             d="m 1601.9015,34.040114 11.76,15.06 c 10.11,-11.76 27.07,-22.59 49.2,-22.59 28.01,0 36.95,15.06 36.95,27.31 0,40.470004 -92.97,17.88 -92.97,73.910006 0,25.87 23.07,43.77 54.13,43.77 23.78,0 42.37,-8.24 55.55,-22.11 l -11.77,-14.37 c -11.77,13.17 -28.25,18.83 -45.43,18.83 -18.59,0 -32.25,-10.12 -32.25,-24.96 0,-35.300002 92.98,-15.05 92.98,-73.660006 0,-22.61 -15.55,-46.1399999 -57.9,-46.1399999 -27.08,0 -47.31,10.3599999 -60.25,24.9499999"
             style="fill:#292929;fill-opacity:1;fill-rule:nonzero;stroke:none"
             id="path40"
             inkscape:connector-curvature="0" /><path
             d="m 1791.6015,11.920114 0,156.990006 102.85,0 0,-17.42 -83.32,0 0,-50.6 81.68,0 0,-17.420002 -81.68,0 0,-54.140004 83.32,0 0,-17.41"
             style="fill:#292929;fill-opacity:1;fill-rule:nonzero;stroke:none"
             id="path42"
             inkscape:connector-curvature="0" /><path
             d="m 2026.9615,148.91012 -33.19,-84.740006 66.61,0 -33.42,84.740006 z m 52.95,-136.990006 -13.87,35.07 -78.16,0 -13.87,-35.07 -22.37,0 63.32,156.990006 24.24,0 63.08,-156.990006"
             style="fill:#292929;fill-opacity:1;fill-rule:nonzero;stroke:none"
             id="path44"
             inkscape:connector-curvature="0" /><path
             d="m 2159.0115,72.880118 0,96.040002 19.77,0 0,-95.570002 c 0,-28.710004 15.3,-46.840004 44.25,-46.840004 28.95,0 44.49,18.13 44.49,46.840004 l 0,95.570002 19.77,0 0,-95.800002 c 0,-39.070004 -21.66,-64.0200039 -64.26,-64.0200039 -42.37,0 -64.02,25.1899999 -64.02,63.7800039"
             style="fill:#292929;fill-opacity:1;fill-rule:nonzero;stroke:none"
             id="path46"
             inkscape:connector-curvature="0" /><path
             d="m 2583.6015,90.300118 c 0,33.890002 -21.42,61.190002 -60.25,61.190002 l -34.14,0 0,-122.160006 34.14,0 c 38.13,0 60.25,27.31 60.25,60.970004 m -113.92,-78.380004 0,156.990006 53.67,0 c 48.95,0 80.5,-34.13 80.5,-78.610002 0,-44.720004 -31.55,-78.380004 -80.5,-78.380004"
             style="fill:#292929;fill-opacity:1;fill-rule:nonzero;stroke:none"
             id="path48"
             inkscape:connector-curvature="0" /><path
             d="m 2676.8115,11.920114 0,156.990006 102.85,0 0,-17.42 -83.32,0 0,-50.6 81.68,0 0,-17.420002 -81.68,0 0,-54.140004 83.32,0 0,-17.41"
             style="fill:#292929;fill-opacity:1;fill-rule:nonzero;stroke:none"
             id="path50"
             inkscape:connector-curvature="0" /><path
             d="m 2947.0115,34.040114 11.77,15.06 c 10.12,-11.76 27.07,-22.59 49.19,-22.59 28.02,0 36.95,15.06 36.95,27.31 0,40.470004 -92.97,17.88 -92.97,73.910006 0,25.87 23.08,43.77 54.13,43.77 23.78,0 42.38,-8.24 55.55,-22.11 l -11.77,-14.37 c -11.77,13.17 -28.23,18.83 -45.43,18.83 -18.58,0 -32.23,-10.12 -32.23,-24.96 0,-35.300002 92.97,-15.05 92.97,-73.660006 0,-22.61 -15.55,-46.1399999 -57.91,-46.1399999 -27.07,0 -47.3,10.3599999 -60.25,24.9499999"
             style="fill:#292929;fill-opacity:1;fill-rule:nonzero;stroke:none"
             id="path52"
             inkscape:connector-curvature="0" /><path
             d="m 3136.7115,11.920114 19.5391,0 0,156.988006 -19.5391,0 0,-156.988006 z"
             style="fill:#292929;fill-opacity:1;fill-rule:nonzero;stroke:none"
             id="path54"
             inkscape:connector-curvature="0" /><path
             d="m 3228.9815,90.300118 c 0,48.960002 36.01,81.200002 80.72,81.200002 28.02,0 47.32,-12.24 60.98,-29.19 l -15.55,-9.88 c -9.88,12.71 -26.59,21.65 -45.43,21.65 -34.34,0 -60.47,-26.12 -60.47,-63.780002 0,-37.190004 26.13,-63.790004 60.47,-63.790004 18.84,0 34.37,8.95 42.38,16.95 l 0,31.780004 -54.13,0 0,17.41 73.43,0 0,-56.490004 c -14.6,-16.48 -36.01,-27.2999999 -61.68,-27.2999999 -44.71,0 -80.72,32.7099999 -80.72,81.4400039"
             style="fill:#292929;fill-opacity:1;fill-rule:nonzero;stroke:none"
             id="path56"
             inkscape:connector-curvature="0" /><path
             d="m 3556.6215,11.920114 -91.57,125.220006 0,-125.220006 -19.54,0 0,156.990006 20.01,0 90.4,-122.620006 0,122.620006 19.52,0 0,-156.990006"
             style="fill:#292929;fill-opacity:1;fill-rule:nonzero;stroke:none"
             id="path58"
             inkscape:connector-curvature="0" /><path
             d="m 3654.5415,11.920114 19.5391,0 0,156.988006 -19.5391,0 0,-156.988006 z"
             style="fill:#292929;fill-opacity:1;fill-rule:nonzero;stroke:none"
             id="path60"
             inkscape:connector-curvature="0" /><path
             d="m 3753.1515,11.920114 0,156.990006 102.85,0 0,-17.42 -83.31,0 0,-50.6 81.67,0 0,-17.420002 -81.67,0 0,-71.550004"
             style="fill:#292929;fill-opacity:1;fill-rule:nonzero;stroke:none"
             id="path62"
             inkscape:connector-curvature="0" /><path
             d="m 3925.2015,11.920114 19.5391,0 0,156.988006 -19.5391,0 0,-156.988006 z"
             style="fill:#292929;fill-opacity:1;fill-rule:nonzero;stroke:none"
             id="path64"
             inkscape:connector-curvature="0" /><path
             d="m 4017.4715,90.300118 c 0,48.240002 35.53,81.200002 80.72,81.200002 27.78,0 47.08,-13.18 59.55,-31.07 l -16.25,-9.18 c -8.93,13.42 -25.4,22.83 -43.3,22.83 -34.36,0 -60.49,-26.12 -60.49,-63.780002 0,-37.190004 26.13,-63.790004 60.49,-63.790004 17.9,0 34.37,9.65 43.3,22.84 l 16.49,-8.95 c -13.17,-18.13 -32.01,-31.2999999 -59.79,-31.2999999 -45.19,0 -80.72,32.9499999 -80.72,81.2000039"
             style="fill:#292929;fill-opacity:1;fill-rule:nonzero;stroke:none"
             id="path66"
             inkscape:connector-curvature="0" /><path
             d="m 4283.6515,148.91012 -33.18,-84.740006 66.62,0 -33.44,84.740006 z m 52.96,-136.990006 -13.87,35.07 -78.15,0 -13.88,-35.07 -22.38,0 63.33,156.990006 24.24,0 63.07,-156.990006"
             style="fill:#292929;fill-opacity:1;fill-rule:nonzero;stroke:none"
             id="path68"
             inkscape:connector-curvature="0" /><path
             d="m 4444.9015,11.920114 0,139.570006 -49.68,0 0,17.42 119.1,0 0,-17.42 -49.91,0 0,-139.570006"
             style="fill:#292929;fill-opacity:1;fill-rule:nonzero;stroke:none"
             id="path70"
             inkscape:connector-curvature="0" /><path
             d="m 4582.5715,11.920114 19.5391,0 0,156.988006 -19.5391,0 0,-156.988006 z"
             style="fill:#292929;fill-opacity:1;fill-rule:nonzero;stroke:none"
             id="path72"
             inkscape:connector-curvature="0" /><path
             d="m 4810.6415,90.300118 c 0,36.720002 -22.82,63.780002 -57.88,63.780002 -35.31,0 -57.69,-27.06 -57.69,-63.780002 0,-36.480004 22.38,-63.790004 57.69,-63.790004 35.06,0 57.88,27.31 57.88,63.790004 m -135.79,0 c 0,46.370002 31.53,81.200002 77.91,81.200002 46.35,0 78.13,-34.83 78.13,-81.200002 0,-46.370004 -31.78,-81.2000039 -78.13,-81.2000039 -46.38,0 -77.91,34.8299999 -77.91,81.2000039"
             style="fill:#292929;fill-opacity:1;fill-rule:nonzero;stroke:none"
             id="path74"
             inkscape:connector-curvature="0" /><path
             d="m 5014.7215,11.920114 -91.55,125.220006 0,-125.220006 -19.54,0 0,156.990006 20.01,0 90.38,-122.620006 0,122.620006 19.54,0 0,-156.990006"
             style="fill:#292929;fill-opacity:1;fill-rule:nonzero;stroke:none"
             id="path76"
             inkscape:connector-curvature="0" /><path
             d="m 386.8015,1525.2701 c 148.94,0.17 297.89,-0.53 446.83,0.83 40.54,-0.04 81.08,0.13 121.62,-0.1 0.4,-164.63 -1.06,-329.25 -0.5,-493.91 0,-150.78998 -0.03,-301.58998 0,-452.40998 l -189.35,0 c 0.03,252.17 0,504.29998 0,756.46998 l -378.6,0"
             style="fill:#575453;fill-opacity:1;fill-rule:nonzero;stroke:none"
             id="path78"
             inkscape:connector-curvature="0" /><path
             d="m 386.8015,390.53012 189.32,0 0,756.46898 -189.32,0 0,-756.46898 z"
             style="fill:#575453;fill-opacity:1;fill-rule:nonzero;stroke:none"
             id="path80"
             inkscape:connector-curvature="0" /><path
             d="m 8.2014941,957.88012 c 63.0800049,-0.07 126.2000059,0 189.2800059,-0.03 l 0,-756.44 378.6,0 c 0,-63.06 0,-126.110002 0.04,-189.160006 -189.32,0.2 -378.64,-0.26 -567.9500059,-0.33 0,315.320006 -0.04,630.640006 0.03,945.960006"
             style="fill:#575453;fill-opacity:1;fill-rule:nonzero;stroke:none"
             id="path82"
             inkscape:connector-curvature="0" /></g></g><g
         id="g84"><g
           id="g86"
           clip-path="url(#clipPath88)" /></g></g></g></svg>